<svg width="40" height="40" viewBox="0 0 40 40" fill="none" xmlns="http://www.w3.org/2000/svg">
<path d="M0 20C0 8.95431 8.95431 0 20 0C31.0457 0 40 8.95431 40 20C40 31.0457 31.0457 40 20 40C8.95431 40 0 31.0457 0 20Z" fill="#002D4B"/>
<path fill-rule="evenodd" clip-rule="evenodd" d="M10 10.8333C10 10.6123 10.0878 10.4004 10.2441 10.2441C10.4004 10.0878 10.6123 10 10.8333 10H27.5C27.721 10 27.933 10.0878 28.0893 10.2441C28.2455 10.4004 28.3333 10.6123 28.3333 10.8333V14.1667C28.3333 14.3571 28.268 14.5418 28.1483 14.69L22.2733 21.9617V29.1667C22.2735 29.3009 22.2412 29.4331 22.1793 29.5521C22.1173 29.6712 22.0276 29.7735 21.9176 29.8504C21.8077 29.9273 21.6807 29.9765 21.5477 29.9939C21.4146 30.0112 21.2793 29.9962 21.1533 29.95L16.6067 28.2833C16.4462 28.2246 16.3077 28.1179 16.21 27.9778C16.1122 27.8377 16.0598 27.6709 16.06 27.5V21.9617L10.185 14.69C10.0653 14.5418 10.0001 14.3571 10 14.1667V10.8333ZM29.1667 22.5C29.6269 22.5 30 22.8731 30 23.3333C30 23.7936 29.6269 24.1667 29.1667 24.1667H24.1667C23.7064 24.1667 23.3333 23.7936 23.3333 23.3333C23.3333 22.8731 23.7064 22.5 24.1667 22.5H29.1667ZM28.3333 26.6667C28.3333 27.1269 27.9602 27.5 27.5 27.5H24.1667C23.7064 27.5 23.3333 27.1269 23.3333 26.6667C23.3333 26.2064 23.7064 25.8333 24.1667 25.8333H27.5C27.9602 25.8333 28.3333 26.2064 28.3333 26.6667Z" fill="#F2F3F4"/>
</svg>
